<svg xmlns="http://www.w3.org/2000/svg" xmlns:xlink="http://www.w3.org/1999/xlink" width="500" zoomAndPan="magnify" viewBox="0 0 375 374.999991" height="500" preserveAspectRatio="xMidYMid meet" version="1.0"><defs><g/><clipPath id="faa39d7797"><path d="M 33 97.492188 L 100 97.492188 L 100 129 L 33 129 Z M 33 97.492188 " clip-rule="nonzero"/></clipPath><clipPath id="56659ee740"><path d="M 26 128 L 114 128 L 114 243.890625 L 26 243.890625 Z M 26 128 " clip-rule="nonzero"/></clipPath><clipPath id="2d71ff3dbb"><path d="M 70 142 L 117.574219 142 L 117.574219 243.890625 L 70 243.890625 Z M 70 142 " clip-rule="nonzero"/></clipPath></defs><g clip-path="url(#faa39d7797)"><path fill="#000000" d="M 66.773438 113.210938 C 61.511719 112.386719 51.605469 112.347656 48.441406 112.757812 L 46.796875 122.828125 C 51.277344 122.089844 57.441406 122.171875 64.101562 123.238281 C 70.757812 124.347656 76.636719 126.238281 80.625 128.378906 L 82.433594 117.363281 L 99.078125 114.402344 L 68.335938 97.507812 L 33.808594 103.675781 L 48.109375 111.523438 C 56.25 110.457031 66.773438 113.210938 66.773438 113.210938 Z M 66.773438 113.210938 " fill-opacity="1" fill-rule="nonzero"/></g><g clip-path="url(#56659ee740)"><path fill="#000000" d="M 66.195312 243.835938 C 66.195312 243.835938 70.429688 157.847656 114 139.433594 C 114 139.433594 92.339844 132.691406 54.277344 180.371094 C 41.988281 170.550781 34.957031 152.710938 32.164062 128.417969 C 32.121094 128.417969 5.28125 200.679688 66.195312 243.835938 Z M 66.195312 243.835938 " fill-opacity="1" fill-rule="nonzero"/></g><path fill="#000000" d="M 44 142.105469 C 44 151.230469 51.398438 158.671875 60.566406 158.671875 C 69.730469 158.671875 77.128906 151.273438 77.128906 142.105469 C 77.128906 132.941406 69.730469 125.542969 60.566406 125.542969 C 51.398438 125.542969 44 132.980469 44 142.105469 Z M 44 142.105469 " fill-opacity="1" fill-rule="nonzero"/><g clip-path="url(#2d71ff3dbb)"><path fill="#000000" d="M 70.101562 243.835938 L 83.5 213.050781 C 84.609375 229.695312 92.257812 243.835938 92.257812 243.835938 C 84.980469 170.097656 117.574219 142.105469 117.574219 142.105469 C 74.253906 165.042969 70.101562 243.835938 70.101562 243.835938 Z M 70.101562 243.835938 " fill-opacity="1" fill-rule="nonzero"/></g><g fill="#1c3f4a" fill-opacity="1"><g transform="translate(108.764148, 200.963631)"><g><path d="M 10.84375 -8.84375 L 26.234375 -8.84375 C 27.003906 -8.84375 27.582031 -8.816406 27.96875 -8.765625 C 28.351562 -8.722656 28.796875 -8.566406 29.296875 -8.296875 C 30.191406 -7.828125 30.640625 -6.53125 30.640625 -4.40625 C 30.640625 -2.070312 30.023438 -0.703125 28.796875 -0.296875 C 28.222656 -0.0976562 27.351562 0 26.1875 0 L 6.390625 0 C 4.066406 0 2.703125 -0.632812 2.296875 -1.90625 C 2.097656 -2.4375 2 -3.285156 2 -4.453125 L 2 -32.234375 C 2 -33.941406 2.316406 -35.101562 2.953125 -35.71875 C 3.585938 -36.332031 4.785156 -36.640625 6.546875 -36.640625 L 26.234375 -36.640625 C 27.003906 -36.640625 27.582031 -36.613281 27.96875 -36.5625 C 28.351562 -36.507812 28.796875 -36.351562 29.296875 -36.09375 C 30.191406 -35.625 30.640625 -34.320312 30.640625 -32.1875 C 30.640625 -29.851562 30.023438 -28.488281 28.796875 -28.09375 C 28.222656 -27.894531 27.351562 -27.796875 26.1875 -27.796875 L 10.84375 -27.796875 L 10.84375 -22.75 L 20.75 -22.75 C 21.507812 -22.75 22.082031 -22.722656 22.46875 -22.671875 C 22.851562 -22.617188 23.296875 -22.457031 23.796875 -22.1875 C 24.691406 -21.726562 25.140625 -20.429688 25.140625 -18.296875 C 25.140625 -15.960938 24.507812 -14.597656 23.25 -14.203125 C 22.675781 -13.992188 21.804688 -13.890625 20.640625 -13.890625 L 10.84375 -13.890625 Z M 10.84375 -8.84375 "/></g></g></g><g fill="#1c3f4a" fill-opacity="1"><g transform="translate(140.655432, 200.963631)"><g><path d="M 6.453125 -36.6875 L 15.6875 -36.640625 C 20.519531 -36.640625 24.769531 -34.894531 28.4375 -31.40625 C 32.101562 -27.925781 33.9375 -23.644531 33.9375 -18.5625 C 33.9375 -13.488281 32.144531 -9.132812 28.5625 -5.5 C 24.976562 -1.863281 20.640625 -0.046875 15.546875 -0.046875 L 6.390625 -0.046875 C 4.359375 -0.046875 3.09375 -0.460938 2.59375 -1.296875 C 2.195312 -1.992188 2 -3.0625 2 -4.5 L 2 -32.296875 C 2 -33.085938 2.023438 -33.664062 2.078125 -34.03125 C 2.128906 -34.40625 2.285156 -34.84375 2.546875 -35.34375 C 3.015625 -36.238281 4.316406 -36.6875 6.453125 -36.6875 Z M 15.6875 -8.890625 C 18.09375 -8.890625 20.257812 -9.78125 22.1875 -11.5625 C 24.125 -13.351562 25.09375 -15.597656 25.09375 -18.296875 C 25.09375 -20.992188 24.148438 -23.25 22.265625 -25.0625 C 20.378906 -26.882812 18.171875 -27.796875 15.640625 -27.796875 L 10.84375 -27.796875 L 10.84375 -8.890625 Z M 15.6875 -8.890625 "/></g></g></g><g fill="#1c3f4a" fill-opacity="1"><g transform="translate(175.845819, 200.963631)"><g><path d="M 25.9375 -35.28125 C 26.269531 -35.820312 26.753906 -36.191406 27.390625 -36.390625 C 28.023438 -36.585938 28.816406 -36.6875 29.765625 -36.6875 C 30.710938 -36.6875 31.46875 -36.601562 32.03125 -36.4375 C 32.601562 -36.269531 33.039062 -36.066406 33.34375 -35.828125 C 33.644531 -35.597656 33.859375 -35.253906 33.984375 -34.796875 C 34.191406 -34.222656 34.296875 -33.351562 34.296875 -32.1875 L 34.296875 -17.09375 C 34.296875 -12.695312 32.925781 -8.695312 30.1875 -5.09375 C 28.851562 -3.394531 27.132812 -2.019531 25.03125 -0.96875 C 22.9375 0.0703125 20.613281 0.59375 18.0625 0.59375 C 15.519531 0.59375 13.207031 0.0625 11.125 -1 C 9.039062 -2.0625 7.347656 -3.460938 6.046875 -5.203125 C 3.347656 -8.734375 2 -12.726562 2 -17.1875 L 2 -32.234375 C 2 -33.035156 2.023438 -33.628906 2.078125 -34.015625 C 2.128906 -34.398438 2.285156 -34.84375 2.546875 -35.34375 C 2.816406 -35.84375 3.265625 -36.191406 3.890625 -36.390625 C 4.523438 -36.585938 5.375 -36.6875 6.4375 -36.6875 C 7.507812 -36.6875 8.363281 -36.585938 9 -36.390625 C 9.632812 -36.191406 10.066406 -35.84375 10.296875 -35.34375 C 10.691406 -34.570312 10.890625 -33.519531 10.890625 -32.1875 L 10.890625 -17.1875 C 10.890625 -15.15625 11.390625 -13.222656 12.390625 -11.390625 C 12.890625 -10.460938 13.640625 -9.710938 14.640625 -9.140625 C 15.640625 -8.578125 16.820312 -8.296875 18.1875 -8.296875 C 20.625 -8.296875 22.441406 -9.195312 23.640625 -11 C 24.835938 -12.800781 25.4375 -14.882812 25.4375 -17.25 L 25.4375 -32.546875 C 25.4375 -33.835938 25.601562 -34.75 25.9375 -35.28125 Z M 25.9375 -35.28125 "/></g></g></g><g fill="#1c3f4a" fill-opacity="1"><g transform="translate(212.135912, 200.963631)"><g><path d="M 21.09375 -22.09375 L 29.890625 -22.09375 C 31.691406 -22.03125 32.789062 -21.5625 33.1875 -20.6875 C 33.519531 -20.0625 33.6875 -19.128906 33.6875 -17.890625 L 33.6875 -6.890625 C 33.6875 -5.828125 33.222656 -4.8125 32.296875 -3.84375 C 29.492188 -0.945312 25.289062 0.5 19.6875 0.5 C 14.726562 0.5 10.414062 -1.375 6.75 -5.125 C 3.082031 -8.875 1.25 -13.394531 1.25 -18.6875 C 1.25 -23.988281 3.113281 -28.410156 6.84375 -31.953125 C 10.582031 -35.503906 14.984375 -37.28125 20.046875 -37.28125 C 23.972656 -37.28125 27.6875 -35.984375 31.1875 -33.390625 C 32.09375 -32.722656 32.546875 -31.976562 32.546875 -31.15625 C 32.546875 -30.34375 32.160156 -29.40625 31.390625 -28.34375 C 30.085938 -26.570312 28.90625 -25.6875 27.84375 -25.6875 C 27.207031 -25.6875 26.1875 -26.144531 24.78125 -27.0625 C 23.382812 -27.976562 21.722656 -28.4375 19.796875 -28.4375 C 17.265625 -28.4375 15.015625 -27.546875 13.046875 -25.765625 C 11.078125 -23.984375 10.09375 -21.648438 10.09375 -18.765625 C 10.09375 -15.890625 11.09375 -13.441406 13.09375 -11.421875 C 15.09375 -9.398438 17.359375 -8.390625 19.890625 -8.390625 C 21.722656 -8.390625 23.375 -8.691406 24.84375 -9.296875 L 24.84375 -14.75 L 20.890625 -14.75 C 19.859375 -14.75 19.125 -14.878906 18.6875 -15.140625 C 18.257812 -15.410156 17.976562 -15.800781 17.84375 -16.3125 C 17.707031 -16.832031 17.640625 -17.535156 17.640625 -18.421875 C 17.640625 -19.304688 17.710938 -20.015625 17.859375 -20.546875 C 18.015625 -21.078125 18.289062 -21.441406 18.6875 -21.640625 C 19.289062 -21.941406 20.09375 -22.09375 21.09375 -22.09375 Z M 21.09375 -22.09375 "/></g></g></g><g fill="#1c3f4a" fill-opacity="1"><g transform="translate(247.826163, 200.963631)"><g><path d="M 23.140625 -34.046875 L 36.640625 -6.140625 C 37.203125 -5.015625 37.484375 -4.164062 37.484375 -3.59375 C 37.484375 -2.394531 36.519531 -1.3125 34.59375 -0.34375 C 33.457031 0.21875 32.5625 0.5 31.90625 0.5 C 31.257812 0.5 30.726562 0.347656 30.3125 0.046875 C 29.894531 -0.253906 29.59375 -0.570312 29.40625 -0.90625 C 29.226562 -1.238281 28.972656 -1.738281 28.640625 -2.40625 L 26.046875 -7.796875 L 12.203125 -7.796875 L 9.59375 -2.40625 C 9.257812 -1.738281 9 -1.253906 8.8125 -0.953125 C 8.632812 -0.648438 8.335938 -0.335938 7.921875 -0.015625 C 7.503906 0.296875 6.96875 0.453125 6.3125 0.453125 C 5.664062 0.453125 4.78125 0.164062 3.65625 -0.40625 C 1.71875 -1.332031 0.75 -2.394531 0.75 -3.59375 C 0.75 -4.164062 1.03125 -5.015625 1.59375 -6.140625 L 15.09375 -34.09375 C 15.457031 -34.851562 16.015625 -35.46875 16.765625 -35.9375 C 17.515625 -36.40625 18.304688 -36.640625 19.140625 -36.640625 C 20.941406 -36.640625 22.273438 -35.773438 23.140625 -34.046875 Z M 19.09375 -22.046875 L 15.796875 -15.1875 L 22.4375 -15.1875 Z M 19.09375 -22.046875 "/></g></g></g><g fill="#1c3f4a" fill-opacity="1"><g transform="translate(286.065716, 200.963631)"><g><path d="M 4.40625 -36.6875 L 32.1875 -36.6875 C 33.257812 -36.6875 34.039062 -36.5625 34.53125 -36.3125 C 35.03125 -36.0625 35.363281 -35.671875 35.53125 -35.140625 C 35.695312 -34.609375 35.78125 -33.90625 35.78125 -33.03125 C 35.78125 -32.164062 35.695312 -31.472656 35.53125 -30.953125 C 35.363281 -30.441406 35.082031 -30.085938 34.6875 -29.890625 C 34.09375 -29.585938 33.242188 -29.4375 32.140625 -29.4375 L 22.59375 -29.4375 L 22.59375 -4.296875 C 22.59375 -3.535156 22.566406 -2.96875 22.515625 -2.59375 C 22.460938 -2.226562 22.3125 -1.800781 22.0625 -1.3125 C 21.8125 -0.832031 21.367188 -0.492188 20.734375 -0.296875 C 20.109375 -0.0976562 19.273438 0 18.234375 0 C 17.203125 0 16.378906 -0.0976562 15.765625 -0.296875 C 15.148438 -0.492188 14.71875 -0.832031 14.46875 -1.3125 C 14.21875 -1.800781 14.066406 -2.238281 14.015625 -2.625 C 13.972656 -3.007812 13.953125 -3.582031 13.953125 -4.34375 L 13.953125 -29.4375 L 4.34375 -29.4375 C 3.28125 -29.4375 2.5 -29.5625 2 -29.8125 C 1.5 -30.0625 1.164062 -30.453125 1 -30.984375 C 0.832031 -31.523438 0.75 -32.226562 0.75 -33.09375 C 0.75 -33.957031 0.832031 -34.644531 1 -35.15625 C 1.164062 -35.675781 1.445312 -36.035156 1.84375 -36.234375 C 2.445312 -36.535156 3.300781 -36.6875 4.40625 -36.6875 Z M 4.40625 -36.6875 "/></g></g></g><g fill="#1c3f4a" fill-opacity="1"><g transform="translate(322.605735, 200.963631)"><g><path d="M 10.84375 -8.84375 L 26.234375 -8.84375 C 27.003906 -8.84375 27.582031 -8.816406 27.96875 -8.765625 C 28.351562 -8.722656 28.796875 -8.566406 29.296875 -8.296875 C 30.191406 -7.828125 30.640625 -6.53125 30.640625 -4.40625 C 30.640625 -2.070312 30.023438 -0.703125 28.796875 -0.296875 C 28.222656 -0.0976562 27.351562 0 26.1875 0 L 6.390625 0 C 4.066406 0 2.703125 -0.632812 2.296875 -1.90625 C 2.097656 -2.4375 2 -3.285156 2 -4.453125 L 2 -32.234375 C 2 -33.941406 2.316406 -35.101562 2.953125 -35.71875 C 3.585938 -36.332031 4.785156 -36.640625 6.546875 -36.640625 L 26.234375 -36.640625 C 27.003906 -36.640625 27.582031 -36.613281 27.96875 -36.5625 C 28.351562 -36.507812 28.796875 -36.351562 29.296875 -36.09375 C 30.191406 -35.625 30.640625 -34.320312 30.640625 -32.1875 C 30.640625 -29.851562 30.023438 -28.488281 28.796875 -28.09375 C 28.222656 -27.894531 27.351562 -27.796875 26.1875 -27.796875 L 10.84375 -27.796875 L 10.84375 -22.75 L 20.75 -22.75 C 21.507812 -22.75 22.082031 -22.722656 22.46875 -22.671875 C 22.851562 -22.617188 23.296875 -22.457031 23.796875 -22.1875 C 24.691406 -21.726562 25.140625 -20.429688 25.140625 -18.296875 C 25.140625 -15.960938 24.507812 -14.597656 23.25 -14.203125 C 22.675781 -13.992188 21.804688 -13.890625 20.640625 -13.890625 L 10.84375 -13.890625 Z M 10.84375 -8.84375 "/></g></g></g><g fill="#1c3f4a" fill-opacity="1"><g transform="translate(121.289928, 215.688425)"><g><path d="M 4.125 -2.9375 L 2.171875 -2.9375 L 2.171875 0 L 0.859375 0 L 0.859375 -6.9375 L 4.78125 -6.9375 L 4.984375 -5.890625 L 2.171875 -5.890625 L 2.171875 -3.96875 L 3.9375 -3.96875 Z M 4.125 -2.9375 "/></g></g></g><g fill="#1c3f4a" fill-opacity="1"><g transform="translate(131.39519, 215.688425)"><g><path d="M 0.578125 -3.4375 C 0.578125 -4.507812 0.851562 -5.382812 1.40625 -6.0625 C 1.96875 -6.738281 2.757812 -7.082031 3.78125 -7.09375 C 4.863281 -7.09375 5.664062 -6.742188 6.1875 -6.046875 C 6.71875 -5.347656 6.984375 -4.503906 6.984375 -3.515625 C 6.984375 -2.429688 6.703125 -1.554688 6.140625 -0.890625 C 5.578125 -0.222656 4.789062 0.117188 3.78125 0.140625 C 2.695312 0.140625 1.890625 -0.207031 1.359375 -0.90625 C 0.835938 -1.601562 0.578125 -2.445312 0.578125 -3.4375 Z M 1.953125 -3.453125 C 1.953125 -2.722656 2.097656 -2.125 2.390625 -1.65625 C 2.691406 -1.195312 3.148438 -0.96875 3.765625 -0.96875 C 4.328125 -0.96875 4.769531 -1.175781 5.09375 -1.59375 C 5.425781 -2.007812 5.59375 -2.648438 5.59375 -3.515625 C 5.59375 -4.234375 5.445312 -4.820312 5.15625 -5.28125 C 4.863281 -5.75 4.410156 -5.984375 3.796875 -5.984375 C 3.253906 -5.984375 2.8125 -5.753906 2.46875 -5.296875 C 2.125 -4.835938 1.953125 -4.222656 1.953125 -3.453125 Z M 1.953125 -3.453125 "/></g></g></g><g fill="#1c3f4a" fill-opacity="1"><g transform="translate(143.956148, 215.688425)"><g><path d="M 2.984375 -5.84375 L 2.171875 -5.84375 L 2.171875 -3.71875 L 3.015625 -3.71875 C 3.410156 -3.71875 3.734375 -3.796875 3.984375 -3.953125 C 4.242188 -4.109375 4.375 -4.375 4.375 -4.75 C 4.375 -5.132812 4.25 -5.410156 4 -5.578125 C 3.757812 -5.753906 3.421875 -5.84375 2.984375 -5.84375 Z M 4.890625 0 L 3.421875 -2.65625 C 3.347656 -2.644531 3.269531 -2.632812 3.1875 -2.625 C 3.101562 -2.625 3.019531 -2.625 2.9375 -2.625 L 2.171875 -2.625 L 2.171875 0 L 0.859375 0 L 0.859375 -6.9375 L 3.03125 -6.9375 C 3.78125 -6.9375 4.425781 -6.757812 4.96875 -6.40625 C 5.507812 -6.0625 5.78125 -5.53125 5.78125 -4.8125 C 5.78125 -4.375 5.664062 -4 5.4375 -3.6875 C 5.21875 -3.382812 4.9375 -3.148438 4.59375 -2.984375 L 6.296875 0 Z M 4.890625 0 "/></g></g></g><g fill="#1c3f4a" fill-opacity="1"><g transform="translate(155.355485, 215.688425)"><g/></g></g><g fill="#1c3f4a" fill-opacity="1"><g transform="translate(162.770701, 215.688425)"><g><path d="M 5.71875 0 L 0.859375 0 L 0.859375 -6.9375 L 5 -6.9375 L 5.203125 -5.890625 L 2.171875 -5.890625 L 2.171875 -4.03125 L 4.03125 -4.03125 L 4.25 -2.984375 L 2.171875 -2.984375 L 2.171875 -1.03125 L 5.5 -1.03125 Z M 5.71875 0 "/></g></g></g><g fill="#1c3f4a" fill-opacity="1"><g transform="translate(173.691133, 215.688425)"><g><path d="M 3.390625 0.015625 L 3.390625 0 L 0.859375 0 L 0.859375 -6.9375 L 3.390625 -6.9375 C 4.472656 -6.945312 5.273438 -6.625 5.796875 -5.96875 C 6.316406 -5.320312 6.578125 -4.503906 6.578125 -3.515625 C 6.578125 -2.429688 6.296875 -1.578125 5.734375 -0.953125 C 5.179688 -0.328125 4.398438 -0.00390625 3.390625 0.015625 Z M 3.4375 -5.8125 L 2.171875 -5.8125 L 2.171875 -1.109375 L 3.359375 -1.109375 C 3.921875 -1.109375 4.367188 -1.289062 4.703125 -1.65625 C 5.046875 -2.03125 5.21875 -2.648438 5.21875 -3.515625 C 5.21875 -4.234375 5.070312 -4.796875 4.78125 -5.203125 C 4.5 -5.609375 4.050781 -5.8125 3.4375 -5.8125 Z M 3.4375 -5.8125 "/></g></g></g><g fill="#1c3f4a" fill-opacity="1"><g transform="translate(185.864886, 215.688425)"><g><path d="M 2.125 -6.9375 L 2.125 -2.625 C 2.125 -2.039062 2.265625 -1.617188 2.546875 -1.359375 C 2.828125 -1.097656 3.1875 -0.96875 3.625 -0.96875 C 4.082031 -0.96875 4.445312 -1.101562 4.71875 -1.375 C 4.988281 -1.644531 5.125 -2.0625 5.125 -2.625 L 5.125 -6.9375 L 6.46875 -6.9375 L 6.46875 -2.515625 C 6.46875 -1.765625 6.210938 -1.140625 5.703125 -0.640625 C 5.191406 -0.140625 4.5 0.109375 3.625 0.109375 C 2.757812 0.117188 2.070312 -0.125 1.5625 -0.625 C 1.0625 -1.132812 0.8125 -1.765625 0.8125 -2.515625 L 0.796875 -6.9375 Z M 2.125 -6.9375 "/></g></g></g><g fill="#1c3f4a" fill-opacity="1"><g transform="translate(198.140533, 215.688425)"><g><path d="M 5.15625 -5.6875 C 4.851562 -5.769531 4.601562 -5.835938 4.40625 -5.890625 C 4.21875 -5.941406 3.976562 -5.96875 3.6875 -5.96875 C 3.132812 -5.96875 2.707031 -5.742188 2.40625 -5.296875 C 2.101562 -4.847656 1.953125 -4.234375 1.953125 -3.453125 C 1.953125 -2.773438 2.078125 -2.191406 2.328125 -1.703125 C 2.585938 -1.210938 3.015625 -0.96875 3.609375 -0.96875 C 3.898438 -0.96875 4.171875 -1 4.421875 -1.0625 C 4.679688 -1.125 4.914062 -1.195312 5.125 -1.28125 L 5.625 -0.3125 C 5.351562 -0.175781 5.03125 -0.0664062 4.65625 0.015625 C 4.289062 0.0976562 3.960938 0.140625 3.671875 0.140625 C 2.585938 0.140625 1.800781 -0.203125 1.3125 -0.890625 C 0.820312 -1.585938 0.578125 -2.4375 0.578125 -3.4375 C 0.578125 -4.507812 0.847656 -5.382812 1.390625 -6.0625 C 1.929688 -6.738281 2.707031 -7.078125 3.71875 -7.078125 C 3.925781 -7.078125 4.207031 -7.039062 4.5625 -6.96875 C 4.925781 -6.90625 5.257812 -6.789062 5.5625 -6.625 Z M 5.15625 -5.6875 "/></g></g></g><g fill="#1c3f4a" fill-opacity="1"><g transform="translate(209.193435, 215.688425)"><g><path d="M 3.296875 -5.125 L 2.390625 -2.703125 L 4.21875 -2.703125 Z M 3.890625 -6.9375 L 6.578125 -0.1875 L 5.25 0 L 4.625 -1.625 L 2 -1.625 L 1.390625 0 L 0.0625 0 L 2.765625 -6.9375 Z M 3.890625 -6.9375 "/></g></g></g><g fill="#1c3f4a" fill-opacity="1"><g transform="translate(220.837332, 215.688425)"><g><path d="M 0.0625 -6.9375 L 5.671875 -6.9375 L 5.890625 -5.890625 L 3.515625 -5.890625 L 3.515625 0 L 2.171875 0 L 2.171875 -5.890625 L 0.0625 -5.890625 Z M 0.0625 -6.9375 "/></g></g></g><g fill="#1c3f4a" fill-opacity="1"><g transform="translate(231.778142, 215.688425)"><g><path d="M 2.171875 -6.9375 L 2.171875 0 L 0.859375 0 L 0.859375 -6.9375 Z M 2.171875 -6.9375 "/></g></g></g><g fill="#1c3f4a" fill-opacity="1"><g transform="translate(239.814916, 215.688425)"><g><path d="M 0.578125 -3.4375 C 0.578125 -4.507812 0.851562 -5.382812 1.40625 -6.0625 C 1.96875 -6.738281 2.757812 -7.082031 3.78125 -7.09375 C 4.863281 -7.09375 5.664062 -6.742188 6.1875 -6.046875 C 6.71875 -5.347656 6.984375 -4.503906 6.984375 -3.515625 C 6.984375 -2.429688 6.703125 -1.554688 6.140625 -0.890625 C 5.578125 -0.222656 4.789062 0.117188 3.78125 0.140625 C 2.695312 0.140625 1.890625 -0.207031 1.359375 -0.90625 C 0.835938 -1.601562 0.578125 -2.445312 0.578125 -3.4375 Z M 1.953125 -3.453125 C 1.953125 -2.722656 2.097656 -2.125 2.390625 -1.65625 C 2.691406 -1.195312 3.148438 -0.96875 3.765625 -0.96875 C 4.328125 -0.96875 4.769531 -1.175781 5.09375 -1.59375 C 5.425781 -2.007812 5.59375 -2.648438 5.59375 -3.515625 C 5.59375 -4.234375 5.445312 -4.820312 5.15625 -5.28125 C 4.863281 -5.75 4.410156 -5.984375 3.796875 -5.984375 C 3.253906 -5.984375 2.8125 -5.753906 2.46875 -5.296875 C 2.125 -4.835938 1.953125 -4.222656 1.953125 -3.453125 Z M 1.953125 -3.453125 "/></g></g></g><g fill="#1c3f4a" fill-opacity="1"><g transform="translate(252.375876, 215.688425)"><g><path d="M 6.71875 -6.9375 L 6.71875 0 L 5.390625 0 L 2.171875 -4.640625 L 2.171875 0 L 0.859375 0 L 0.859375 -6.9375 L 2.171875 -6.9375 L 5.390625 -2.3125 L 5.390625 -6.9375 Z M 6.71875 -6.9375 "/></g></g></g><g fill="#1c3f4a" fill-opacity="1"><g transform="translate(264.947027, 215.688425)"><g/></g></g><g fill="#1c3f4a" fill-opacity="1"><g transform="translate(272.362243, 215.688425)"><g><path d="M 0.859375 -1.53125 C 1.066406 -1.425781 1.332031 -1.316406 1.65625 -1.203125 C 1.988281 -1.097656 2.300781 -1.046875 2.59375 -1.046875 C 3.007812 -1.046875 3.320312 -1.109375 3.53125 -1.234375 C 3.738281 -1.359375 3.84375 -1.546875 3.84375 -1.796875 C 3.84375 -2.023438 3.703125 -2.226562 3.421875 -2.40625 C 3.148438 -2.59375 2.847656 -2.769531 2.515625 -2.9375 C 2.023438 -3.1875 1.554688 -3.484375 1.109375 -3.828125 C 0.660156 -4.171875 0.4375 -4.644531 0.4375 -5.25 C 0.445312 -5.769531 0.65625 -6.207031 1.0625 -6.5625 C 1.476562 -6.914062 2.066406 -7.09375 2.828125 -7.09375 C 3.179688 -7.09375 3.53125 -7.039062 3.875 -6.9375 C 4.21875 -6.832031 4.523438 -6.710938 4.796875 -6.578125 L 4.359375 -5.515625 C 4.140625 -5.617188 3.90625 -5.71875 3.65625 -5.8125 C 3.414062 -5.90625 3.148438 -5.953125 2.859375 -5.953125 C 2.554688 -5.953125 2.304688 -5.890625 2.109375 -5.765625 C 1.910156 -5.648438 1.8125 -5.476562 1.8125 -5.25 C 1.8125 -4.988281 1.941406 -4.769531 2.203125 -4.59375 C 2.460938 -4.425781 2.769531 -4.25 3.125 -4.0625 C 3.613281 -3.8125 4.082031 -3.515625 4.53125 -3.171875 C 4.988281 -2.828125 5.210938 -2.363281 5.203125 -1.78125 C 5.203125 -1.226562 4.976562 -0.769531 4.53125 -0.40625 C 4.09375 -0.0507812 3.457031 0.125 2.625 0.125 C 2.320312 0.125 1.941406 0.0625 1.484375 -0.0625 C 1.023438 -0.1875 0.71875 -0.316406 0.5625 -0.453125 Z M 0.859375 -1.53125 "/></g></g></g><g fill="#1c3f4a" fill-opacity="1"><g transform="translate(282.997376, 215.688425)"><g><path d="M 5.71875 0 L 0.859375 0 L 0.859375 -6.9375 L 5 -6.9375 L 5.203125 -5.890625 L 2.171875 -5.890625 L 2.171875 -4.03125 L 4.03125 -4.03125 L 4.25 -2.984375 L 2.171875 -2.984375 L 2.171875 -1.03125 L 5.5 -1.03125 Z M 5.71875 0 "/></g></g></g><g fill="#1c3f4a" fill-opacity="1"><g transform="translate(293.917807, 215.688425)"><g><path d="M 2.984375 -5.84375 L 2.171875 -5.84375 L 2.171875 -3.71875 L 3.015625 -3.71875 C 3.410156 -3.71875 3.734375 -3.796875 3.984375 -3.953125 C 4.242188 -4.109375 4.375 -4.375 4.375 -4.75 C 4.375 -5.132812 4.25 -5.410156 4 -5.578125 C 3.757812 -5.753906 3.421875 -5.84375 2.984375 -5.84375 Z M 4.890625 0 L 3.421875 -2.65625 C 3.347656 -2.644531 3.269531 -2.632812 3.1875 -2.625 C 3.101562 -2.625 3.019531 -2.625 2.9375 -2.625 L 2.171875 -2.625 L 2.171875 0 L 0.859375 0 L 0.859375 -6.9375 L 3.03125 -6.9375 C 3.78125 -6.9375 4.425781 -6.757812 4.96875 -6.40625 C 5.507812 -6.0625 5.78125 -5.53125 5.78125 -4.8125 C 5.78125 -4.375 5.664062 -4 5.4375 -3.6875 C 5.21875 -3.382812 4.9375 -3.148438 4.59375 -2.984375 L 6.296875 0 Z M 4.890625 0 "/></g></g></g><g fill="#1c3f4a" fill-opacity="1"><g transform="translate(305.317148, 215.688425)"><g><path d="M 2.75 0 L 0.0625 -6.75 L 1.375 -6.9375 L 3.34375 -1.8125 L 5.25 -6.9375 L 6.578125 -6.9375 L 3.875 0 Z M 2.75 0 "/></g></g></g><g fill="#1c3f4a" fill-opacity="1"><g transform="translate(316.961045, 215.688425)"><g><path d="M 2.171875 -6.9375 L 2.171875 0 L 0.859375 0 L 0.859375 -6.9375 Z M 2.171875 -6.9375 "/></g></g></g><g fill="#1c3f4a" fill-opacity="1"><g transform="translate(324.99782, 215.688425)"><g><path d="M 5.15625 -5.6875 C 4.851562 -5.769531 4.601562 -5.835938 4.40625 -5.890625 C 4.21875 -5.941406 3.976562 -5.96875 3.6875 -5.96875 C 3.132812 -5.96875 2.707031 -5.742188 2.40625 -5.296875 C 2.101562 -4.847656 1.953125 -4.234375 1.953125 -3.453125 C 1.953125 -2.773438 2.078125 -2.191406 2.328125 -1.703125 C 2.585938 -1.210938 3.015625 -0.96875 3.609375 -0.96875 C 3.898438 -0.96875 4.171875 -1 4.421875 -1.0625 C 4.679688 -1.125 4.914062 -1.195312 5.125 -1.28125 L 5.625 -0.3125 C 5.351562 -0.175781 5.03125 -0.0664062 4.65625 0.015625 C 4.289062 0.0976562 3.960938 0.140625 3.671875 0.140625 C 2.585938 0.140625 1.800781 -0.203125 1.3125 -0.890625 C 0.820312 -1.585938 0.578125 -2.4375 0.578125 -3.4375 C 0.578125 -4.507812 0.847656 -5.382812 1.390625 -6.0625 C 1.929688 -6.738281 2.707031 -7.078125 3.71875 -7.078125 C 3.925781 -7.078125 4.207031 -7.039062 4.5625 -6.96875 C 4.925781 -6.90625 5.257812 -6.789062 5.5625 -6.625 Z M 5.15625 -5.6875 "/></g></g></g><g fill="#1c3f4a" fill-opacity="1"><g transform="translate(336.050722, 215.688425)"><g><path d="M 5.71875 0 L 0.859375 0 L 0.859375 -6.9375 L 5 -6.9375 L 5.203125 -5.890625 L 2.171875 -5.890625 L 2.171875 -4.03125 L 4.03125 -4.03125 L 4.25 -2.984375 L 2.171875 -2.984375 L 2.171875 -1.03125 L 5.5 -1.03125 Z M 5.71875 0 "/></g></g></g></svg>