
<svg xmlns="http://www.w3.org/2000/svg" width="1200" height="600" viewBox="0 0 1200 600">
  <defs>
    <linearGradient id="skyGrad" x1="0%" y1="0%" x2="0%" y2="100%">
      <stop offset="0%" style="stop-color:#ff7e00;stop-opacity:0.8" />
      <stop offset="100%" style="stop-color:#ffbe0b;stop-opacity:0.5" />
    </linearGradient>
  </defs>
  <rect width="1200" height="600" fill="url(#skyGrad)" />
  
  <!-- Background buildings -->
  <rect x="50" y="200" width="100" height="400" fill="#333" opacity="0.7" />
  <rect x="170" y="250" width="120" height="350" fill="#444" opacity="0.7" />
  <rect x="310" y="180" width="80" height="420" fill="#555" opacity="0.7" />
  <rect x="410" y="280" width="130" height="320" fill="#666" opacity="0.7" />
  <rect x="860" y="220" width="90" height="380" fill="#555" opacity="0.7" />
  <rect x="970" y="270" width="140" height="330" fill="#444" opacity="0.7" />
  <rect x="1130" y="190" width="70" height="410" fill="#333" opacity="0.7" />
  
  <!-- Petronas Towers -->
  <rect x="580" y="150" width="40" height="450" fill="#46bdc6" opacity="0.9" />
  <polygon points="580,150 620,150 600,50" fill="#46bdc6" opacity="0.9" />
  <rect x="660" y="150" width="40" height="450" fill="#46bdc6" opacity="0.9" />
  <polygon points="660,150 700,150 680,50" fill="#46bdc6" opacity="0.9" />
  
  <!-- Bridge between towers -->
  <rect x="620" y="250" width="40" height="20" fill="#46bdc6" opacity="0.9" />
  
  <!-- KL Tower -->
  <rect x="780" y="200" width="20" height="400" fill="#fbbc05" opacity="0.8" />
  <circle cx="790" cy="180" r="30" fill="#fbbc05" opacity="0.8" />
  
  <!-- Text -->
  <text x="600" y="550" font-family="Arial, sans-serif" font-size="36" font-weight="bold" 
    text-anchor="middle" fill="#fff">KUALA LUMPUR</text>
</svg>
